<?xml version="1.0" encoding="UTF-8"?>
<svg data-bbox="0 0 602 608.054" xmlns="http://www.w3.org/2000/svg" viewBox="0 0 602 602" height="602" width="602" data-type="color">
    <g>
        <path fill="#FEC42E" d="M602 301c0 166.238-134.762 301-301 301S0 467.238 0 301 134.762 0 301 0s301 134.762 301 301z" data-color="1"/>
        <path fill="#FEC42E" d="M489.125 301c0 103.899-84.226 188.125-188.125 188.125S112.875 404.899 112.875 301 197.101 112.875 301 112.875 489.125 197.101 489.125 301z" data-color="1"/>
        <mask height="378" width="378" y="112" x="112" maskUnits="userSpaceOnUse" style="mask-type:luminance" id="679f9de1-b8a7-4d2e-b315-ca32ba6b4b87" fill="none">
            <path fill="#ffffff" d="M489.125 301c0 103.899-84.226 188.125-188.125 188.125S112.875 404.899 112.875 301 197.101 112.875 301 112.875 489.125 197.101 489.125 301z"/>
        </mask>
        <g mask="url(#679f9de1-b8a7-4d2e-b315-ca32ba6b4b87)">
            <path fill="#ffffff" d="m301.172 237.36 234.067-135.063 23.517 30.537L301.172 281.83 47.687 135.514 71.4 104.698 301.172 237.36Zm-58.336 100.247L8.834 202.43l14.688-35.635 257.827 148.576.028 292.683-38.543-5.127.002-265.32Zm348.57-135.177L357.405 337.607l.002 265.32-38.544 5.127.029-292.683 257.827-148.576 14.687 35.635Z" clip-rule="evenodd" fill-rule="evenodd" data-color="2"/>
        </g>
    </g>
</svg>
